{
  "accessors": [
    {
      "bufferView": 1,
      "componentType": 5126,
      "count": 65534,
      "max": [
        8.747477531433105,
        8.77560806274414,
        10.2532958984375
      ],
      "min": [
        -8.747501373291016,
        -8.77570629119873,
        -0.0018370000179857016
      ],
      "type": "VEC3"
    },
    {
      "bufferView": 1,
      "byteOffset": 786408,
      "componentType": 5126,
      "count": 65534,
      "max": [
        1.0,
        1.0,
        1.0
      ],
      "min": [
        -1.0,
        -1.0,
        -1.0
      ],
      "type": "VEC3"
    },
    {
      "bufferView": 0,
      "componentType": 5125,
      "count": 65712,
      "type": "SCALAR"
    },
    {
      "bufferView": 1,
      "byteOffset": 1572816,
      "componentType": 5126,
      "count": 65533,
      "max": [
        8.747477531433105,
        8.760730743408203,
        10.2532958984375
      ],
      "min": [
        -8.747501373291016,
        -8.77547836303711,
        -0.0018370000179857016
      ],
      "type": "VEC3"
    },
    {
      "bufferView": 1,
      "byteOffset": 2359212,
      "componentType": 5126,
      "count": 65533,
      "max": [
        1.0,
        1.0,
        1.0
      ],
      "min": [
        -1.0,
        -1.0,
        -0.9999996423721313
      ],
      "type": "VEC3"
    },
    {
      "bufferView": 0,
      "byteOffset": 262848,
      "componentType": 5125,
      "count": 65634,
      "type": "SCALAR"
    },
    {
      "bufferView": 1,
      "byteOffset": 3145608,
      "componentType": 5126,
      "count": 65534,
      "max": [
        8.747477531433105,
        8.775465965270996,
        10.149815559387207
      ],
      "min": [
        -8.747501373291016,
        -8.77570629119873,
        -0.0014850000152364373
      ],
      "type": "VEC3"
    },
    {
      "bufferView": 1,
      "byteOffset": 3932016,
      "componentType": 5126,
      "count": 65534,
      "max": [
        1.0,
        1.0,
        1.0
      ],
      "min": [
        -1.0,
        -1.0,
        -1.0
      ],
      "type": "VEC3"
    },
    {
      "bufferView": 0,
      "byteOffset": 525384,
      "componentType": 5125,
      "count": 65676,
      "type": "SCALAR"
    },
    {
      "bufferView": 1,
      "byteOffset": 4718424,
      "componentType": 5126,
      "count": 65532,
      "max": [
        8.747212409973145,
        8.77560806274414,
        10.140900611877441
      ],
      "min": [
        -8.746950149536133,
        -8.775567054748535,
        -0.0018370000179857016
      ],
      "type": "VEC3"
    },
    {
      "bufferView": 1,
      "byteOffset": 5504808,
      "componentType": 5126,
      "count": 65532,
      "max": [
        1.0,
        1.0,
        1.0
      ],
      "min": [
        -1.0,
        -1.0,
        -1.0
      ],
      "type": "VEC3"
    },
    {
      "bufferView": 0,
      "byteOffset": 788088,
      "componentType": 5125,
      "count": 65538,
      "type": "SCALAR"
    },
    {
      "bufferView": 1,
      "byteOffset": 6291192,
      "componentType": 5126,
      "count": 65532,
      "max": [
        8.747477531433105,
        8.775590896606445,
        10.253029823303223
      ],
      "min": [
        -8.747501373291016,
        -8.77570629119873,
        -0.0016659999964758754
      ],
      "type": "VEC3"
    },
    {
      "bufferView": 1,
      "byteOffset": 7077576,
      "componentType": 5126,
      "count": 65532,
      "max": [
        1.0,
        1.0,
        1.0
      ],
      "min": [
        -1.0,
        -1.0,
        -0.9999998807907104
      ],
      "type": "VEC3"
    },
    {
      "bufferView": 0,
      "byteOffset": 1050240,
      "componentType": 5125,
      "count": 65538,
      "type": "SCALAR"
    },
    {
      "bufferView": 1,
      "byteOffset": 7863960,
      "componentType": 5126,
      "count": 65532,
      "max": [
        8.747477531433105,
        8.77560806274414,
        10.2532958984375
      ],
      "min": [
        -8.74704360961914,
        -8.77570629119873,
        -0.0018370000179857016
      ],
      "type": "VEC3"
    },
    {
      "bufferView": 1,
      "byteOffset": 8650344,
      "componentType": 5126,
      "count": 65532,
      "max": [
        1.0,
        1.0,
        1.0
      ],
      "min": [
        -1.0,
        -1.0,
        -1.0
      ],
      "type": "VEC3"
    },
    {
      "bufferView": 0,
      "byteOffset": 1312392,
      "componentType": 5125,
      "count": 65538,
      "type": "SCALAR"
    },
    {
      "bufferView": 1,
      "byteOffset": 9436728,
      "componentType": 5126,
      "count": 22503,
      "max": [
        8.743133544921875,
        8.77091121673584,
        10.097538948059082
      ],
      "min": [
        -8.747501373291016,
        -8.758463859558105,
        -0.001585999969393015
      ],
      "type": "VEC3"
    },
    {
      "bufferView": 1,
      "byteOffset": 9706764,
      "componentType": 5126,
      "count": 22503,
      "max": [
        1.0,
        0.9999998807907104,
        1.0
      ],
      "min": [
        -0.9999998807907104,
        -1.0,
        -0.9999986886978149
      ],
      "type": "VEC3"
    },
    {
      "bufferView": 0,
      "byteOffset": 1574544,
      "componentType": 5125,
      "count": 22503,
      "type": "SCALAR"
    }
  ],
  "asset": {
    "extras": {
      "author": "AtheneaAtlas (https://sketchfab.com/AtheneaAtlas)",
      "license": "CC-BY-NC-4.0 (http://creativecommons.org/licenses/by-nc/4.0/)",
      "source": "https://sketchfab.com/3d-models/taj-mahal-df6d5328741c4abb96f3ecd4c933c7bd",
      "title": "Taj Mahal"
    },
    "generator": "Sketchfab-16.72.0",
    "version": "2.0"
  },
  "bufferViews": [
    {
      "buffer": 0,
      "byteLength": 1664556,
      "name": "floatBufferViews",
      "target": 34963
    },
    {
      "buffer": 0,
      "byteLength": 9976800,
      "byteOffset": 1664556,
      "byteStride": 12,
      "name": "floatBufferViews",
      "target": 34962
    }
  ],
  "buffers": [
    {
      "byteLength": 11641356,
      "uri": "scene.bin"
    }
  ],
  "materials": [
    {
      "doubleSided": true,
      "name": "material_0",
      "pbrMetallicRoughness": {
        "metallicFactor": 0.0,
        "roughnessFactor": 0.6
      }
    }
  ],
  "meshes": [
    {
      "name": "Object_0",
      "primitives": [
        {
          "attributes": {
            "NORMAL": 1,
            "POSITION": 0
          },
          "indices": 2,
          "material": 0,
          "mode": 4
        }
      ]
    },
    {
      "name": "Object_1",
      "primitives": [
        {
          "attributes": {
            "NORMAL": 4,
            "POSITION": 3
          },
          "indices": 5,
          "material": 0,
          "mode": 4
        }
      ]
    },
    {
      "name": "Object_2",
      "primitives": [
        {
          "attributes": {
            "NORMAL": 7,
            "POSITION": 6
          },
          "indices": 8,
          "material": 0,
          "mode": 4
        }
      ]
    },
    {
      "name": "Object_3",
      "primitives": [
        {
          "attributes": {
            "NORMAL": 10,
            "POSITION": 9
          },
          "indices": 11,
          "material": 0,
          "mode": 4
        }
      ]
    },
    {
      "name": "Object_4",
      "primitives": [
        {
          "attributes": {
            "NORMAL": 13,
            "POSITION": 12
          },
          "indices": 14,
          "material": 0,
          "mode": 4
        }
      ]
    },
    {
      "name": "Object_5",
      "primitives": [
        {
          "attributes": {
            "NORMAL": 16,
            "POSITION": 15
          },
          "indices": 17,
          "material": 0,
          "mode": 4
        }
      ]
    },
    {
      "name": "Object_6",
      "primitives": [
        {
          "attributes": {
            "NORMAL": 19,
            "POSITION": 18
          },
          "indices": 20,
          "material": 0,
          "mode": 4
        }
      ]
    }
  ],
  "nodes": [
    {
      "children": [
        1
      ],
      "matrix": [
        1.0,
        0.0,
        0.0,
        0.0,
        0.0,
        2.220446049250313e-16,
        -1.0,
        0.0,
        0.0,
        1.0,
        2.220446049250313e-16,
        0.0,
        0.0,
        0.0,
        0.0,
        1.0
      ],
      "name": "Sketchfab_model"
    },
    {
      "children": [
        2,
        3,
        4,
        5,
        6,
        7,
        8
      ],
      "name": "Taj Mahal Low.obj.cleaner.materialmerger.gles"
    },
    {
      "mesh": 0,
      "name": "Object_2"
    },
    {
      "mesh": 1,
      "name": "Object_3"
    },
    {
      "mesh": 2,
      "name": "Object_4"
    },
    {
      "mesh": 3,
      "name": "Object_5"
    },
    {
      "mesh": 4,
      "name": "Object_6"
    },
    {
      "mesh": 5,
      "name": "Object_7"
    },
    {
      "mesh": 6,
      "name": "Object_8"
    }
  ],
  "scene": 0,
  "scenes": [
    {
      "name": "Sketchfab_Scene",
      "nodes": [
        0
      ]
    }
  ]
}
