{
  "accessors": [
    {
      "bufferView": 2,
      "componentType": 5126,
      "count": 65534,
      "max": [
        14.580472946166992,
        11.41706657409668,
        4.834024429321289
      ],
      "min": [
        -11.267117500305176,
        -12.87339973449707,
        -2.8446521759033203
      ],
      "type": "VEC3"
    },
    {
      "bufferView": 2,
      "byteOffset": 786408,
      "componentType": 5126,
      "count": 65534,
      "max": [
        0.9999993443489075,
        0.9999878406524658,
        1.0
      ],
      "min": [
        -0.9999997615814209,
        -0.9999616742134094,
        -0.9808193445205688
      ],
      "type": "VEC3"
    },
    {
      "bufferView": 1,
      "componentType": 5126,
      "count": 65534,
      "max": [
        0.9971641302108765,
        0.9955202341079712
      ],
      "min": [
        0.0027667696122080088,
        0.002765357494354248
      ],
      "type": "VEC2"
    },
    {
      "bufferView": 0,
      "componentType": 5125,
      "count": 98301,
      "type": "SCALAR"
    },
    {
      "bufferView": 2,
      "byteOffset": 1572816,
      "componentType": 5126,
      "count": 65534,
      "max": [
        14.580472946166992,
        12.371829986572266,
        5.625974655151367
      ],
      "min": [
        -11.281693458557129,
        -13.044205665588379,
        -2.968751907348633
      ],
      "type": "VEC3"
    },
    {
      "bufferView": 2,
      "byteOffset": 2359224,
      "componentType": 5126,
      "count": 65534,
      "max": [
        0.9999054074287415,
        0.99991774559021,
        0.9999999403953552
      ],
      "min": [
        -0.9999789595603943,
        -0.9999442100524902,
        -0.999788761138916
      ],
      "type": "VEC3"
    },
    {
      "bufferView": 1,
      "byteOffset": 524272,
      "componentType": 5126,
      "count": 65534,
      "max": [
        0.9971418380737305,
        0.9967244863510132
      ],
      "min": [
        0.0027705945540219545,
        0.0027679884806275368
      ],
      "type": "VEC2"
    },
    {
      "bufferView": 0,
      "byteOffset": 393204,
      "componentType": 5125,
      "count": 97722,
      "type": "SCALAR"
    },
    {
      "bufferView": 2,
      "byteOffset": 3145632,
      "componentType": 5126,
      "count": 65533,
      "max": [
        14.451311111450195,
        12.792976379394531,
        5.652215957641602
      ],
      "min": [
        -11.150968551635742,
        -12.93252944946289,
        -2.919952392578125
      ],
      "type": "VEC3"
    },
    {
      "bufferView": 2,
      "byteOffset": 3932028,
      "componentType": 5126,
      "count": 65533,
      "max": [
        0.9999979734420776,
        0.9999666810035706,
        0.9999989867210388
      ],
      "min": [
        -0.9999802112579346,
        -0.9999814033508301,
        -0.9883984923362732
      ],
      "type": "VEC3"
    },
    {
      "bufferView": 1,
      "byteOffset": 1048544,
      "componentType": 5126,
      "count": 65533,
      "max": [
        0.9971015453338623,
        0.9953897595405579
      ],
      "min": [
        0.002768123522400856,
        0.002850182820111513
      ],
      "type": "VEC2"
    },
    {
      "bufferView": 0,
      "byteOffset": 784092,
      "componentType": 5125,
      "count": 98295,
      "type": "SCALAR"
    },
    {
      "bufferView": 2,
      "byteOffset": 4718424,
      "componentType": 5126,
      "count": 65534,
      "max": [
        14.139782905578613,
        9.662399291992188,
        3.7890281677246094
      ],
      "min": [
        -1.532667636871338,
        -12.729757308959961,
        -2.3553123474121094
      ],
      "type": "VEC3"
    },
    {
      "bufferView": 2,
      "byteOffset": 5504832,
      "componentType": 5126,
      "count": 65534,
      "max": [
        0.9968836903572083,
        0.9990092515945435,
        0.9999994039535522
      ],
      "min": [
        -0.9999950528144836,
        -0.9999567270278931,
        -0.9775187373161316
      ],
      "type": "VEC3"
    },
    {
      "bufferView": 1,
      "byteOffset": 1572808,
      "componentType": 5126,
      "count": 65534,
      "max": [
        0.9971665143966675,
        0.9968329668045044
      ],
      "min": [
        0.002839301247149706,
        0.0027845639269798994
      ],
      "type": "VEC2"
    },
    {
      "bufferView": 0,
      "byteOffset": 1177272,
      "componentType": 5125,
      "count": 98298,
      "type": "SCALAR"
    },
    {
      "bufferView": 2,
      "byteOffset": 6291240,
      "componentType": 5126,
      "count": 11255,
      "max": [
        13.648882865905762,
        7.505828857421875,
        2.869661331176758
      ],
      "min": [
        0.4149355888366699,
        -10.041801452636719,
        -2.1977005004882813
      ],
      "type": "VEC3"
    },
    {
      "bufferView": 2,
      "byteOffset": 6426300,
      "componentType": 5126,
      "count": 11255,
      "max": [
        0.9837908148765564,
        0.953167736530304,
        0.9998589754104614
      ],
      "min": [
        -0.9972310662269592,
        -0.9999638199806213,
        -0.9451670050621033
      ],
      "type": "VEC3"
    },
    {
      "bufferView": 1,
      "byteOffset": 2097080,
      "componentType": 5126,
      "count": 11255,
      "max": [
        0.9965624213218689,
        0.9968159198760986
      ],
      "min": [
        0.02437795326113701,
        0.002769868355244398
      ],
      "type": "VEC2"
    },
    {
      "bufferView": 0,
      "byteOffset": 1570464,
      "componentType": 5125,
      "count": 16881,
      "type": "SCALAR"
    }
  ],
  "asset": {
    "extras": {
      "author": "GSXNet (https://sketchfab.com/gsxn)",
      "license": "CC-BY-4.0 (http://creativecommons.org/licenses/by/4.0/)",
      "source": "https://sketchfab.com/3d-models/ellora-caves-india-1a5ec1e212f9451e80dc051e97164d17",
      "title": "Ellora Caves | India"
    },
    "generator": "Sketchfab-12.68.0",
    "version": "2.0"
  },
  "bufferViews": [
    {
      "buffer": 0,
      "byteLength": 1637988,
      "name": "floatBufferViews",
      "target": 34963
    },
    {
      "buffer": 0,
      "byteLength": 2187120,
      "byteOffset": 1637988,
      "byteStride": 8,
      "name": "floatBufferViews",
      "target": 34962
    },
    {
      "buffer": 0,
      "byteLength": 6561360,
      "byteOffset": 3825108,
      "byteStride": 12,
      "name": "floatBufferViews",
      "target": 34962
    }
  ],
  "buffers": [
    {
      "byteLength": 10386468,
      "uri": "scene.bin"
    }
  ],
  "extensionsUsed": [
    "KHR_materials_unlit"
  ],
  "images": [
    {
      "uri": "textures/material_baseColor.jpeg"
    }
  ],
  "materials": [
    {
      "doubleSided": true,
      "extensions": {
        "KHR_materials_unlit": {}
      },
      "name": "material",
      "pbrMetallicRoughness": {
        "baseColorTexture": {
          "index": 0
        },
        "metallicFactor": 0.0
      }
    }
  ],
  "meshes": [
    {
      "name": "Retopo_Model_Tex_0",
      "primitives": [
        {
          "attributes": {
            "NORMAL": 1,
            "POSITION": 0,
            "TEXCOORD_0": 2
          },
          "indices": 3,
          "material": 0,
          "mode": 4
        }
      ]
    },
    {
      "name": "Retopo_Model_Tex_0",
      "primitives": [
        {
          "attributes": {
            "NORMAL": 5,
            "POSITION": 4,
            "TEXCOORD_0": 6
          },
          "indices": 7,
          "material": 0,
          "mode": 4
        }
      ]
    },
    {
      "name": "Retopo_Model_Tex_0",
      "primitives": [
        {
          "attributes": {
            "NORMAL": 9,
            "POSITION": 8,
            "TEXCOORD_0": 10
          },
          "indices": 11,
          "material": 0,
          "mode": 4
        }
      ]
    },
    {
      "name": "Retopo_Model_Tex_0",
      "primitives": [
        {
          "attributes": {
            "NORMAL": 13,
            "POSITION": 12,
            "TEXCOORD_0": 14
          },
          "indices": 15,
          "material": 0,
          "mode": 4
        }
      ]
    },
    {
      "name": "Retopo_Model_Tex_0",
      "primitives": [
        {
          "attributes": {
            "NORMAL": 17,
            "POSITION": 16,
            "TEXCOORD_0": 18
          },
          "indices": 19,
          "material": 0,
          "mode": 4
        }
      ]
    }
  ],
  "nodes": [
    {
      "children": [
        1
      ],
      "matrix": [
        1.0,
        0.0,
        0.0,
        0.0,
        0.0,
        2.220446049250313e-16,
        -1.0,
        0.0,
        0.0,
        1.0,
        2.220446049250313e-16,
        0.0,
        0.0,
        0.0,
        0.0,
        1.0
      ],
      "name": "Sketchfab_model"
    },
    {
      "children": [
        2
      ],
      "matrix": [
        1.0,
        0.0,
        0.0,
        0.0,
        0.0,
        0.0,
        1.0,
        0.0,
        0.0,
        -1.0,
        0.0,
        0.0,
        0.0,
        0.0,
        0.0,
        1.0
      ],
      "name": "ellora.fbx"
    },
    {
      "children": [
        3
      ],
      "name": "RootNode"
    },
    {
      "children": [
        4,
        5,
        6,
        7,
        8
      ],
      "matrix": [
        100.0,
        0.0,
        0.0,
        0.0,
        0.0,
        -1.629206793918314e-05,
        -99.99999999999868,
        0.0,
        0.0,
        99.99999999999868,
        -1.629206793918314e-05,
        0.0,
        0.0,
        0.0,
        0.0,
        1.0
      ],
      "name": "Retopo_Model"
    },
    {
      "mesh": 0,
      "name": "Retopo_Model_Tex_0"
    },
    {
      "mesh": 1,
      "name": "Retopo_Model_Tex_0"
    },
    {
      "mesh": 2,
      "name": "Retopo_Model_Tex_0"
    },
    {
      "mesh": 3,
      "name": "Retopo_Model_Tex_0"
    },
    {
      "mesh": 4,
      "name": "Retopo_Model_Tex_0"
    }
  ],
  "samplers": [
    {
      "magFilter": 9729,
      "minFilter": 9987,
      "wrapS": 10497,
      "wrapT": 10497
    }
  ],
  "scene": 0,
  "scenes": [
    {
      "name": "Sketchfab_Scene",
      "nodes": [
        0
      ]
    }
  ],
  "textures": [
    {
      "sampler": 0,
      "source": 0
    }
  ]
}
